HIERARCHY
ROOT SpineBase
{
  OFFSET 0.000000 0.000000 0.000000
  CHANNELS 6 Xposition Yposition Zposition Zrotation Xrotation Yrotation
  JOINT SpineMid
  {
    OFFSET 0.000000 32.196175 -0.000000
    CHANNELS 3 Zrotation Xrotation Yrotation
    JOINT SpineShoulder
    {
      OFFSET 0.234274 23.771761 -0.894559
      CHANNELS 3 Zrotation Xrotation Yrotation
      JOINT Neck
      {
        OFFSET 0.043991 7.812708 -0.616167
        CHANNELS 3 Zrotation Xrotation Yrotation
        JOINT Head
        {
          OFFSET -0.631080 10.980173 6.544838
          CHANNELS 3 Zrotation Xrotation Yrotation
          End Site
          {
            OFFSET 0 0 0
          }
        }
      }
      JOINT ShoulderLeft
      {
        OFFSET -11.694979 -8.141565 12.106791
        CHANNELS 3 Zrotation Xrotation Yrotation
        JOINT ElbowLeft
        {
          OFFSET 12.197700 -18.732072 -22.950195
          CHANNELS 3 Zrotation Xrotation Yrotation
          JOINT WristLeft
          {
            OFFSET 14.587004 -25.600898 -9.420276
            CHANNELS 3 Zrotation Xrotation Yrotation
            JOINT HandLeft
            {
              OFFSET 3.880728 -6.785213 -1.010245
              CHANNELS 3 Zrotation Xrotation Yrotation
              JOINT HandTipLeft
              {
                OFFSET 3.510787 -7.991110 1.123912
                CHANNELS 3 Zrotation Xrotation Yrotation
                End Site
                {
                  OFFSET 0 0 0
                }
              }
              JOINT ThumbLeft
              {
                OFFSET -1.247952 -4.655898 -1.968129
                CHANNELS 3 Zrotation Xrotation Yrotation
                End Site
                {
                  OFFSET 0 0 0
                }
              }
            }
          }
        }
      }
      JOINT ShoulderRight
      {
        OFFSET -0.193257 -5.454626 -13.074791
        CHANNELS 3 Zrotation Xrotation Yrotation
        JOINT ElbowRight
        {
          OFFSET 4.490651 -25.395624 -4.953257
          CHANNELS 3 Zrotation Xrotation Yrotation
          JOINT WristRight
          {
            OFFSET 3.142251 -21.768047 3.302307
            CHANNELS 3 Zrotation Xrotation Yrotation
            JOINT HandRight
            {
              OFFSET 1.775857 -6.023017 2.337575
              CHANNELS 3 Zrotation Xrotation Yrotation
              JOINT HandTipRight
              {
                OFFSET 1.855273 -3.130681 -0.277554
                CHANNELS 3 Zrotation Xrotation Yrotation
                End Site
                {
                  OFFSET 0 0 0
                }
              }
              JOINT ThumbRight
              {
                OFFSET -2.049529 2.903205 -0.955617
                CHANNELS 3 Zrotation Xrotation Yrotation
                End Site
                {
                  OFFSET 0 0 0
                }
              }
            }
          }
        }
      }
    }
  }
  JOINT HipLeft
  {
    OFFSET -2.687921 0.609518 -3.723003
    CHANNELS 3 Zrotation Xrotation Yrotation
    JOINT KneeLeft
    {
      OFFSET 10.826081 -37.739129 -4.227042
      CHANNELS 3 Zrotation Xrotation Yrotation
      JOINT AnkleLeft
      {
        OFFSET -3.814414 -34.102000 0.316015
        CHANNELS 3 Zrotation Xrotation Yrotation
        JOINT FootLeft
        {
          OFFSET 3.574582 -7.315249 -3.600840
          CHANNELS 3 Zrotation Xrotation Yrotation
          End Site
          {
            OFFSET 0 0 0
          }
        }
      }
    }
  }
  JOINT HipRight
  {
    OFFSET 3.151252 1.570941 -3.727295
    CHANNELS 3 Zrotation Xrotation Yrotation
    JOINT KneeRight
    {
      OFFSET 14.523125 -32.162835 17.287872
      CHANNELS 3 Zrotation Xrotation Yrotation
      JOINT AnkleRight
      {
        OFFSET -8.053246 -38.356646 11.336818
        CHANNELS 3 Zrotation Xrotation Yrotation
        JOINT FootRight
        {
          OFFSET -7.460998 -4.452458 -6.206271
          CHANNELS 3 Zrotation Xrotation Yrotation
          End Site
          {
            OFFSET 0 0 0
          }
        }
      }
    }
  }
}
MOTION
Frames: 8
Frame Time: 0.033333
-15.512671 80.932141 238.253665 -0.000000 -0.000000 0.042112 0.000000 0.000000 -0.042112 -0.000000 0.000000 0.000000 -0.000000 0.000000 0.000000 0.000000 0.000000 0.000000 -0.000000 0.000000 0.000000 -0.000000 0.000000 0.000000 -0.000000 0.000000 0.000000 -0.000000 0.000000 0.000000 0.000000 0.000000 0.000000 0.000000 0.000000 0.000000 -0.000000 0.000000 0.000000 -0.000000 0.000000 0.000000 -0.000000 0.000000 0.000000 -0.000000 0.000000 0.000000 0.000000 0.000000 0.000000 0.000000 0.000000 0.000000 0.000000 0.000000 -0.042112 -0.000000 0.000000 0.000000 -0.000000 0.000000 0.000000 0.000000 0.000000 0.000000 0.000000 0.000000 -0.042112 -0.000000 0.000000 0.000000 -0.000000 0.000000 0.000000 0.000000 0.000000 0.000000
-15.332234 80.923033 238.214290 0.251124 0.084984 -0.273745 -0.250716 -0.086182 0.273370 -0.000000 0.000000 0.000000 -0.000000 0.000000 0.000000 0.000000 0.000000 0.000000 -0.000000 0.000000 0.000000 -0.000000 0.000000 0.000000 -0.783025 -1.767734 -0.912253 0.755150 1.779817 0.888442 0.000000 0.000000 0.000000 0.000000 0.000000 0.000000 -0.000000 0.000000 0.000000 -0.000000 0.000000 0.000000 -1.546546 0.777600 -0.362890 -2.320187 -5.495304 -2.334164 0.000000 0.000000 0.000000 0.000000 0.000000 0.000000 -0.250716 -0.086182 0.273370 -0.000000 0.000000 0.000000 -0.000000 0.000000 0.000000 0.000000 0.000000 0.000000 -0.250716 -0.086182 0.273370 -0.000000 0.000000 0.000000 11.835221 -9.276736 -0.018574 0.000000 0.000000 0.000000
-15.190229 80.915248 238.168562 0.441573 0.158048 -0.147171 -0.441167 -0.159177 0.145949 -0.000000 0.000000 0.000000 -0.000000 0.000000 0.000000 0.000000 0.000000 0.000000 -0.000000 0.000000 0.000000 0.945370 0.603362 -0.009001 -2.881055 -4.063578 -1.796582 2.525315 2.970710 1.468563 0.000000 0.000000 0.000000 0.000000 0.000000 0.000000 -0.000000 0.000000 0.000000 -0.000000 0.000000 0.000000 -2.421209 2.421628 -0.177090 -3.802805 -9.696425 -4.301802 0.000000 0.000000 0.000000 0.000000 0.000000 0.000000 -0.441167 -0.159177 0.145949 -0.000000 0.000000 0.000000 -0.000000 0.000000 0.000000 0.000000 0.000000 0.000000 -0.441167 -0.159177 0.145949 -0.947552 -0.343374 -0.210262 30.394713 -21.488663 3.414477 0.000000 0.000000 0.000000
-15.086656 80.908786 238.116481 0.571302 0.219187 0.417884 -0.572890 -0.215004 -0.420052 -0.000000 0.000000 0.000000 -0.000000 0.000000 0.000000 0.000000 0.000000 0.000000 0.562117 0.497597 -0.364021 0.575474 0.211128 0.344811 -4.625279 -5.815061 -2.656943 4.226017 4.521676 2.029743 0.000000 0.000000 0.000000 0.000000 0.000000 0.000000 -0.000000 0.000000 0.000000 -0.000000 0.000000 0.000000 -2.619422 4.919494 0.560242 -5.226116 -13.548622 -6.325586 0.000000 0.000000 0.000000 0.000000 0.000000 0.000000 -0.572890 -0.215004 -0.420052 -0.000000 0.000000 0.000000 -0.000000 0.000000 0.000000 0.000000 0.000000 0.000000 0.201420 -0.130013 0.037873 -2.105699 -0.592570 -0.746341 52.715304 -32.892487 12.090240 0.000000 0.000000 0.000000
-15.021514 80.903648 238.058045 0.640266 0.268394 1.418019 -0.646718 -0.252450 -1.420943 -0.000000 0.000000 0.000000 -0.000000 0.000000 0.000000 0.000000 0.000000 0.000000 0.662300 0.555969 -0.448274 0.484141 0.121865 0.408397 -6.631456 -7.420092 -3.528159 6.280195 6.169050 2.475491 0.000000 0.000000 0.000000 0.000000 0.000000 0.000000 0.757090 -0.267928 -0.193137 -0.757997 0.265351 0.196662 -2.176672 8.237812 1.805380 -7.018273 -17.421182 -8.667643 0.000000 0.000000 0.000000 0.000000 0.000000 0.000000 -0.646718 -0.252450 -1.420943 -0.000000 0.000000 0.000000 -0.029769 -0.779755 -0.367858 0.000000 0.000000 0.000000 0.363352 -0.209215 -0.845963 -2.660211 -0.738558 -0.920864 73.175439 -38.985721 22.827367 0.000000 0.000000 0.000000
-14.994803 80.899832 237.993255 0.648413 0.305661 2.849448 -0.662814 -0.273030 -2.852757 -0.000000 0.000000 0.000000 -0.000000 0.000000 0.000000 0.000000 0.000000 0.000000 0.718563 0.560826 -0.513525 0.252404 -0.048301 0.445726 -8.969780 -8.904661 -4.435221 8.757874 7.952441 2.793114 0.000000 0.000000 0.000000 0.000000 0.000000 0.000000 0.729267 -0.320836 -0.196818 -0.730376 0.318303 0.200888 -1.165947 12.299507 3.467958 -9.429008 -21.386751 -11.489593 0.000000 0.000000 0.000000 0.000000 0.000000 0.000000 -0.662814 -0.273030 -2.852757 -0.000000 0.000000 0.000000 -0.197682 -1.115576 -0.452306 0.000000 0.000000 0.000000 0.569113 -0.315064 -2.178432 -3.140522 -0.860791 -1.056843 87.431306 -41.043967 31.092179 0.000000 0.000000 0.000000
-15.042226 80.951659 237.896689 0.561787 0.357340 5.884910 -0.595473 -0.297839 -5.888209 -0.000000 0.000000 0.000000 -0.000000 0.000000 0.000000 0.000000 0.000000 0.000000 0.717037 0.480793 -0.563247 -0.712302 -0.487781 0.557207 -12.531174 -10.972673 -6.094707 13.416743 11.292855 3.187812 0.000000 0.000000 0.000000 0.000000 0.000000 0.000000 -0.000000 0.000000 0.000000 -0.000000 0.000000 0.000000 0.023716 20.325582 6.507308 -9.563802 -28.569858 -15.099234 0.000000 0.000000 0.000000 0.000000 0.000000 0.000000 -0.595473 -0.297839 -5.888209 -0.000000 0.000000 0.000000 -0.508668 -1.584623 -0.535825 0.000000 0.000000 0.000000 0.771603 -0.465262 -5.154864 -3.541131 -1.092542 -1.131935 91.839114 -41.414115 33.279599 0.000000 0.000000 0.000000
-15.056334 81.140030 237.790194 0.498967 0.407167 9.643561 -0.560132 -0.317811 -9.646887 -0.000000 0.000000 0.000000 -0.000000 0.000000 0.000000 0.000000 0.000000 0.000000 0.666187 0.347623 -0.587456 -0.662600 -0.354412 0.583386 -17.208924 -12.910610 -7.568307 17.934196 13.590828 2.893925 0.000000 0.000000 0.000000 0.000000 0.000000 0.000000 -0.000000 0.000000 0.000000 -0.000000 0.000000 0.000000 1.836083 26.082626 8.850998 -14.642695 -33.360252 -20.056771 0.000000 0.000000 0.000000 0.000000 0.000000 0.000000 -0.560132 -0.317811 -9.646887 -0.924182 -0.256992 0.018092 0.074587 -1.784177 -0.620597 0.000000 0.000000 0.000000 0.786035 -0.544815 -8.906124 -3.754975 -1.369617 -1.159204 86.330987 -40.879952 29.680092 0.000000 0.000000 0.000000
